<svg width="163" height="50" viewBox="0 0 163 50" fill="none" xmlns="http://www.w3.org/2000/svg">
<rect x="0.5" y="0.5" width="161.29" height="48.5" rx="5.5" fill="#6366F1"/>
<rect x="0.5" y="0.5" width="161.29" height="48.5" rx="5.5" stroke="#6366F1"/>
<path d="M34.1634 28.01C33.1554 28.01 32.2967 27.7907 31.5874 27.352C30.8781 26.9087 30.3344 26.2927 29.9564 25.504C29.5831 24.7154 29.3964 23.8007 29.3964 22.76C29.3964 21.7194 29.5831 20.8047 29.9564 20.016C30.3344 19.2274 30.8781 18.6137 31.5874 18.175C32.2967 17.7317 33.1554 17.51 34.1634 17.51C35.3254 17.51 36.2867 17.804 37.0474 18.392C37.8127 18.98 38.3447 19.771 38.6434 20.765L37.1594 21.164C36.9634 20.4594 36.6134 19.9064 36.1094 19.505C35.6101 19.1037 34.9614 18.903 34.1634 18.903C33.4494 18.903 32.8544 19.064 32.3784 19.386C31.9024 19.708 31.5431 20.1584 31.3004 20.737C31.0624 21.3157 30.9434 21.99 30.9434 22.76C30.9387 23.53 31.0554 24.2044 31.2934 24.783C31.5361 25.3617 31.8954 25.812 32.3714 26.134C32.8521 26.456 33.4494 26.617 34.1634 26.617C34.9614 26.617 35.6101 26.4164 36.1094 26.015C36.6134 25.609 36.9634 25.056 37.1594 24.356L38.6434 24.755C38.3447 25.749 37.8127 26.54 37.0474 27.128C36.2867 27.716 35.3254 28.01 34.1634 28.01ZM43.4659 28.01C42.7099 28.01 42.0543 27.8397 41.4989 27.499C40.9436 27.1584 40.5143 26.6894 40.2109 26.092C39.9123 25.49 39.7629 24.797 39.7629 24.013C39.7629 23.2244 39.9169 22.5314 40.2249 21.934C40.5329 21.332 40.9646 20.8654 41.5199 20.534C42.0753 20.198 42.7239 20.03 43.4659 20.03C44.2219 20.03 44.8776 20.2004 45.4329 20.541C45.9883 20.8817 46.4176 21.3507 46.7209 21.948C47.0243 22.5454 47.1759 23.2337 47.1759 24.013C47.1759 24.8017 47.0219 25.497 46.714 26.099C46.4106 26.6964 45.9813 27.1654 45.4259 27.506C44.8706 27.842 44.2173 28.01 43.4659 28.01ZM43.4659 26.631C44.1893 26.631 44.7283 26.3884 45.0829 25.903C45.4423 25.413 45.6219 24.783 45.6219 24.013C45.6219 23.2244 45.4399 22.5944 45.0759 22.123C44.7166 21.647 44.1799 21.409 43.4659 21.409C42.9759 21.409 42.5723 21.521 42.2549 21.745C41.9376 21.9644 41.7019 22.27 41.5479 22.662C41.3939 23.0494 41.3169 23.4997 41.3169 24.013C41.3169 24.8064 41.4989 25.441 41.8629 25.917C42.2269 26.393 42.7613 26.631 43.4659 26.631ZM54.0202 27.8V24.083C54.0202 23.789 53.9945 23.488 53.9432 23.18C53.8965 22.8674 53.8032 22.578 53.6632 22.312C53.5279 22.046 53.3342 21.8314 53.0822 21.668C52.8349 21.5047 52.5105 21.423 52.1092 21.423C51.8479 21.423 51.6005 21.4674 51.3672 21.556C51.1339 21.64 50.9285 21.7777 50.7512 21.969C50.5785 22.1604 50.4409 22.4124 50.3382 22.725C50.2402 23.0377 50.1912 23.418 50.1912 23.866L49.2812 23.523C49.2812 22.837 49.4095 22.2327 49.6662 21.71C49.9229 21.1827 50.2915 20.772 50.7722 20.478C51.2529 20.184 51.8339 20.037 52.5152 20.037C53.0379 20.037 53.4765 20.121 53.8312 20.289C54.1859 20.457 54.4729 20.6787 54.6922 20.954C54.9162 21.2247 55.0865 21.521 55.2032 21.843C55.3199 22.165 55.3992 22.48 55.4412 22.788C55.4832 23.096 55.5042 23.3667 55.5042 23.6V27.8H54.0202ZM48.7072 27.8V20.24H50.0162V22.424H50.1912V27.8H48.7072ZM61.6535 27.8C61.1775 27.8934 60.7108 27.933 60.2535 27.919C59.7961 27.905 59.3878 27.8164 59.0285 27.653C58.6691 27.4897 58.3985 27.233 58.2165 26.883C58.0531 26.5704 57.9645 26.253 57.9505 25.931C57.9411 25.6044 57.9365 25.2357 57.9365 24.825V18.14H59.4065V24.755C59.4065 25.0584 59.4088 25.322 59.4135 25.546C59.4228 25.77 59.4718 25.959 59.5605 26.113C59.7285 26.4024 59.9945 26.568 60.3585 26.61C60.7271 26.6474 61.1588 26.631 61.6535 26.561V27.8ZM56.4875 21.416V20.24H61.6535V21.416H56.4875ZM65.3824 28.01C64.8224 28.01 64.3534 27.9074 63.9754 27.702C63.5974 27.492 63.3104 27.2167 63.1144 26.876C62.9231 26.5307 62.8274 26.1527 62.8274 25.742C62.8274 25.3594 62.8951 25.0234 63.0304 24.734C63.1657 24.4447 63.3664 24.1997 63.6324 23.999C63.8984 23.7937 64.2251 23.628 64.6124 23.502C64.9484 23.404 65.3287 23.3177 65.7534 23.243C66.1781 23.1684 66.6237 23.0984 67.0904 23.033C67.5617 22.9677 68.0284 22.9024 68.4904 22.837L67.9584 23.131C67.9677 22.5384 67.8417 22.0997 67.5804 21.815C67.3237 21.5257 66.8804 21.381 66.2504 21.381C65.8537 21.381 65.4897 21.4744 65.1584 21.661C64.8271 21.843 64.5961 22.1464 64.4654 22.571L63.1004 22.151C63.2871 21.5024 63.6417 20.9867 64.1644 20.604C64.6917 20.2214 65.3917 20.03 66.2644 20.03C66.9411 20.03 67.5291 20.1467 68.0284 20.38C68.5324 20.6087 68.9011 20.9727 69.1344 21.472C69.2557 21.7194 69.3304 21.9807 69.3584 22.256C69.3864 22.5314 69.4004 22.8277 69.4004 23.145V27.8H68.1054V26.071L68.3574 26.295C68.0447 26.8737 67.6457 27.3054 67.1604 27.59C66.6797 27.87 66.0871 28.01 65.3824 28.01ZM65.6414 26.813C66.0567 26.813 66.4137 26.7407 66.7124 26.596C67.0111 26.4467 67.2514 26.2577 67.4334 26.029C67.6154 25.8004 67.7344 25.5624 67.7904 25.315C67.8697 25.091 67.9141 24.839 67.9234 24.559C67.9374 24.279 67.9444 24.055 67.9444 23.887L68.4204 24.062C67.9584 24.132 67.5384 24.195 67.1604 24.251C66.7824 24.307 66.4394 24.363 66.1314 24.419C65.8281 24.4704 65.5574 24.5334 65.3194 24.608C65.1187 24.678 64.9391 24.762 64.7804 24.86C64.6264 24.958 64.5027 25.077 64.4094 25.217C64.3207 25.357 64.2764 25.5274 64.2764 25.728C64.2764 25.924 64.3254 26.106 64.4234 26.274C64.5214 26.4374 64.6707 26.568 64.8714 26.666C65.0721 26.764 65.3287 26.813 65.6414 26.813ZM74.4521 28.01C73.6774 28.01 73.0194 27.8374 72.4781 27.492C71.9368 27.1467 71.5214 26.673 71.2321 26.071C70.9474 25.469 70.8028 24.7854 70.7981 24.02C70.8028 23.2407 70.9521 22.5524 71.2461 21.955C71.5401 21.353 71.9601 20.8817 72.5061 20.541C73.0521 20.2004 73.7078 20.03 74.4731 20.03C75.2991 20.03 76.0038 20.2354 76.5871 20.646C77.1751 21.0567 77.5624 21.619 77.7491 22.333L76.2931 22.753C76.1484 22.3284 75.9104 21.9994 75.5791 21.766C75.2524 21.528 74.8768 21.409 74.4521 21.409C73.9714 21.409 73.5771 21.5234 73.2691 21.752C72.9611 21.976 72.7324 22.284 72.5831 22.676C72.4338 23.068 72.3568 23.516 72.3521 24.02C72.3568 24.7994 72.5341 25.4294 72.8841 25.91C73.2388 26.3907 73.7614 26.631 74.4521 26.631C74.9234 26.631 75.3038 26.5237 75.5931 26.309C75.8871 26.0897 76.1111 25.777 76.2651 25.371L77.7491 25.721C77.5018 26.4584 77.0934 27.0254 76.5241 27.422C75.9548 27.814 75.2641 28.01 74.4521 28.01ZM83.5011 27.8C83.0251 27.8934 82.5585 27.933 82.1011 27.919C81.6438 27.905 81.2355 27.8164 80.8761 27.653C80.5168 27.4897 80.2461 27.233 80.0641 26.883C79.9008 26.5704 79.8121 26.253 79.7981 25.931C79.7888 25.6044 79.7841 25.2357 79.7841 24.825V18.14H81.2541V24.755C81.2541 25.0584 81.2565 25.322 81.2611 25.546C81.2705 25.77 81.3195 25.959 81.4081 26.113C81.5761 26.4024 81.8421 26.568 82.2061 26.61C82.5748 26.6474 83.0065 26.631 83.5011 26.561V27.8ZM78.3351 21.416V20.24H83.5011V21.416H78.3351ZM90.7468 28.003C90.2241 28.003 89.7855 27.919 89.4308 27.751C89.0761 27.583 88.7868 27.3637 88.5628 27.093C88.3435 26.8177 88.1755 26.519 88.0588 26.197C87.9421 25.875 87.8628 25.56 87.8208 25.252C87.7788 24.944 87.7578 24.6734 87.7578 24.44V20.24H89.2418V23.957C89.2418 24.251 89.2651 24.5544 89.3118 24.867C89.3631 25.175 89.4565 25.462 89.5918 25.728C89.7318 25.994 89.9255 26.2087 90.1728 26.372C90.4248 26.5354 90.7515 26.617 91.1528 26.617C91.4141 26.617 91.6615 26.575 91.8948 26.491C92.1281 26.4024 92.3311 26.2624 92.5038 26.071C92.6811 25.8797 92.8188 25.6277 92.9168 25.315C93.0195 25.0024 93.0708 24.622 93.0708 24.174L93.9808 24.517C93.9808 25.203 93.8525 25.8097 93.5958 26.337C93.3391 26.8597 92.9705 27.268 92.4898 27.562C92.0091 27.856 91.4281 28.003 90.7468 28.003ZM93.2458 27.8V25.616H93.0708V20.24H94.5478V27.8H93.2458ZM99.4021 28.003C98.4827 28.003 97.7337 27.8 97.1551 27.394C96.5764 26.988 96.2217 26.4164 96.0911 25.679L97.5891 25.448C97.6824 25.84 97.8971 26.1504 98.2331 26.379C98.5737 26.603 98.9961 26.715 99.5001 26.715C99.9574 26.715 100.314 26.6217 100.571 26.435C100.832 26.2484 100.963 25.9917 100.963 25.665C100.963 25.4737 100.916 25.3197 100.823 25.203C100.734 25.0817 100.545 24.9674 100.256 24.86C99.9667 24.7527 99.5257 24.6197 98.9331 24.461C98.2844 24.293 97.7687 24.1134 97.3861 23.922C97.0081 23.726 96.7374 23.4997 96.5741 23.243C96.4154 22.9817 96.3361 22.6667 96.3361 22.298C96.3361 21.8407 96.4574 21.4417 96.7001 21.101C96.9427 20.7604 97.2834 20.4967 97.7221 20.31C98.1654 20.1234 98.6834 20.03 99.2761 20.03C99.8547 20.03 100.37 20.121 100.823 20.303C101.276 20.485 101.642 20.744 101.922 21.08C102.202 21.4114 102.37 21.801 102.426 22.249L100.928 22.522C100.877 22.158 100.706 21.871 100.417 21.661C100.128 21.451 99.7521 21.3367 99.2901 21.318C98.8467 21.2994 98.4874 21.374 98.2121 21.542C97.9367 21.7054 97.7991 21.9317 97.7991 22.221C97.7991 22.389 97.8504 22.5314 97.9531 22.648C98.0604 22.7647 98.2657 22.8767 98.5691 22.984C98.8724 23.0914 99.3204 23.2197 99.9131 23.369C100.548 23.5324 101.052 23.7144 101.425 23.915C101.798 24.111 102.064 24.3467 102.223 24.622C102.386 24.8927 102.468 25.2217 102.468 25.609C102.468 26.3557 102.195 26.9414 101.649 27.366C101.108 27.7907 100.359 28.003 99.4021 28.003ZM112.126 27.8V24.083C112.126 23.789 112.1 23.488 112.049 23.18C112.002 22.8674 111.909 22.578 111.769 22.312C111.633 22.046 111.44 21.8314 111.188 21.668C110.94 21.5047 110.616 21.423 110.215 21.423C109.953 21.423 109.706 21.4674 109.473 21.556C109.239 21.64 109.034 21.7777 108.857 21.969C108.684 22.1604 108.546 22.4124 108.444 22.725C108.346 23.0377 108.297 23.418 108.297 23.866L107.387 23.523C107.387 22.837 107.515 22.2327 107.772 21.71C108.028 21.1827 108.397 20.772 108.878 20.478C109.358 20.184 109.939 20.037 110.621 20.037C111.143 20.037 111.582 20.121 111.937 20.289C112.291 20.457 112.578 20.6787 112.798 20.954C113.022 21.2247 113.192 21.521 113.309 21.843C113.425 22.165 113.505 22.48 113.547 22.788C113.589 23.096 113.61 23.3667 113.61 23.6V27.8H112.126ZM106.813 27.8V20.24H108.122V22.424H108.297V27.8H106.813ZM118.62 28.01C117.864 28.01 117.209 27.8397 116.653 27.499C116.098 27.1584 115.669 26.6894 115.365 26.092C115.067 25.49 114.917 24.797 114.917 24.013C114.917 23.2244 115.071 22.5314 115.379 21.934C115.687 21.332 116.119 20.8654 116.674 20.534C117.23 20.198 117.878 20.03 118.62 20.03C119.376 20.03 120.032 20.2004 120.587 20.541C121.143 20.8817 121.572 21.3507 121.875 21.948C122.179 22.5454 122.33 23.2337 122.33 24.013C122.33 24.8017 122.176 25.497 121.868 26.099C121.565 26.6964 121.136 27.1654 120.58 27.506C120.025 27.842 119.372 28.01 118.62 28.01ZM118.62 26.631C119.344 26.631 119.883 26.3884 120.237 25.903C120.597 25.413 120.776 24.783 120.776 24.013C120.776 23.2244 120.594 22.5944 120.23 22.123C119.871 21.647 119.334 21.409 118.62 21.409C118.13 21.409 117.727 21.521 117.409 21.745C117.092 21.9644 116.856 22.27 116.702 22.662C116.548 23.0494 116.471 23.4997 116.471 24.013C116.471 24.8064 116.653 25.441 117.017 25.917C117.381 26.393 117.916 26.631 118.62 26.631ZM125.205 27.8L122.895 20.233L124.344 20.24L125.926 25.427L127.522 20.24H128.782L130.378 25.427L131.96 20.24H133.402L131.092 27.8H129.916L128.152 22.326L126.381 27.8H125.205Z" fill="white"/>
</svg>
