<svg width="367" height="51" viewBox="0 0 367 51" fill="none" xmlns="http://www.w3.org/2000/svg">
<rect x="0.5" y="0.859985" width="365.4" height="49.3" rx="7.5" fill="#131022"/>
<rect x="0.5" y="0.859985" width="365.4" height="49.3" rx="7.5" stroke="#131022"/>
<g clip-path="url(#clip0_20005128_12695)">
<g clip-path="url(#clip1_20005128_12695)">
<g clip-path="url(#clip2_20005128_12695)">
<path d="M153.486 14.0875C153.486 15.1094 153.179 15.8247 152.566 16.4378C151.851 17.1531 151.033 17.4597 149.909 17.4597C148.887 17.4597 147.968 17.1531 147.252 16.4378C146.537 15.7225 146.128 14.905 146.128 13.8831C146.128 12.8612 146.537 11.9415 147.252 11.3284C147.968 10.6131 148.887 10.3065 149.909 10.3065C150.42 10.3065 150.931 10.4087 151.34 10.6131C151.851 10.8175 152.157 11.0219 152.464 11.4306L151.953 11.8394C151.442 11.2262 150.829 11.0219 150.012 11.0219C149.296 11.0219 148.581 11.3284 148.07 11.8394C147.559 12.3503 147.252 13.0656 147.252 13.8831C147.252 14.7006 147.559 15.4159 148.07 15.9269C148.581 16.4378 149.296 16.7444 150.012 16.7444C150.829 16.7444 151.442 16.4378 152.055 15.9269C152.362 15.6203 152.566 15.1094 152.668 14.4962H150.114V13.4744H153.588C153.486 13.6787 153.486 13.8831 153.486 14.0875Z" fill="white"/>
<path d="M159.004 11.124H155.734V13.3722H158.698V14.1897H155.734V16.4378H159.004V17.2553H154.814V10.3065H159.004V11.124Z" fill="white"/>
<path d="M162.887 17.2553H161.968V11.124H159.924V10.3065H164.829V11.124H162.785V17.2553H162.887Z" fill="white"/>
<path d="M168.405 17.2553V10.3065H169.325V17.2553H168.405Z" fill="white"/>
<path d="M173.413 17.2553H172.493V11.124H170.449V10.3065H175.456V11.124H173.413V17.2553Z" fill="white"/>
<path d="M184.755 16.3356C184.04 17.0509 183.222 17.3575 182.098 17.3575C181.077 17.3575 180.157 17.0509 179.442 16.3356C178.726 15.6203 178.42 14.8028 178.42 13.7809C178.42 12.7591 178.726 11.9416 179.442 11.2263C180.157 10.5109 180.974 10.2044 182.098 10.2044C183.12 10.2044 184.04 10.5109 184.755 11.2263C185.471 11.9416 185.777 12.7591 185.777 13.7809C185.777 14.8028 185.471 15.6203 184.755 16.3356ZM180.157 15.7225C180.668 16.2334 181.383 16.54 182.098 16.54C182.814 16.54 183.529 16.2334 184.04 15.7225C184.551 15.2116 184.857 14.4963 184.857 13.6788C184.857 12.8613 184.551 12.1459 184.04 11.635C183.529 11.1241 182.814 10.8175 182.098 10.8175C181.281 10.8175 180.668 11.1241 180.157 11.635C179.646 12.1459 179.339 12.8613 179.339 13.6788C179.339 14.5984 179.646 15.2116 180.157 15.7225Z" fill="white"/>
<path d="M187.106 17.2553V10.3065H188.23L191.704 15.7225V14.394V10.3065H192.624V17.2553H191.704L188.025 11.5328V12.8612V17.2553H187.106Z" fill="white"/>
<path d="M178.215 27.4741C175.456 27.4741 173.106 29.5178 173.106 32.3791C173.106 35.2403 175.354 37.2841 178.215 37.2841C180.974 37.2841 183.325 35.1381 183.325 32.3791C183.325 29.5178 180.974 27.4741 178.215 27.4741ZM178.215 35.4447C176.683 35.4447 175.354 34.2184 175.354 32.4812C175.354 30.7441 176.683 29.5178 178.215 29.5178C179.748 29.5178 181.077 30.7441 181.077 32.4812C181.077 34.1162 179.748 35.4447 178.215 35.4447ZM167.077 27.4741C164.318 27.4741 161.968 29.5178 161.968 32.3791C161.968 35.2403 164.216 37.2841 167.077 37.2841C169.836 37.2841 172.186 35.1381 172.186 32.3791C172.186 29.5178 169.938 27.4741 167.077 27.4741ZM167.077 35.4447C165.544 35.4447 164.216 34.2184 164.216 32.4812C164.216 30.7441 165.544 29.5178 167.077 29.5178C168.61 29.5178 169.938 30.7441 169.938 32.4812C169.938 34.1162 168.61 35.4447 167.077 35.4447ZM153.895 29.0069V31.1528H159.004C158.902 32.3791 158.493 33.1966 157.88 33.8097C157.165 34.525 155.938 35.3425 153.895 35.3425C150.727 35.3425 148.274 32.89 148.274 29.7222C148.274 26.5544 150.727 24.1019 153.895 24.1019C155.632 24.1019 156.858 24.715 157.778 25.6347L159.311 24.1019C157.982 22.8756 156.347 21.9559 153.895 21.9559C149.501 21.9559 145.924 25.4303 145.924 29.62C145.924 33.8097 149.603 37.2841 153.895 37.2841C156.245 37.2841 157.982 36.5687 159.413 35.1381C160.843 33.7075 161.252 31.7659 161.252 30.2331C161.252 29.7222 161.252 29.3134 161.15 28.9047H153.895V29.0069ZM207.952 30.6419C207.543 29.5178 206.215 27.4741 203.558 27.4741C200.901 27.4741 198.755 29.5178 198.755 32.3791C198.755 35.1381 200.901 37.2841 203.762 37.2841C206.113 37.2841 207.441 35.8534 207.952 35.1381L206.215 34.0141C205.602 34.8316 204.886 35.3425 203.762 35.3425C202.638 35.3425 201.821 34.8316 201.31 33.8097L208.054 31.0506L207.952 30.6419ZM201.003 32.2769C200.901 30.3353 202.536 29.4156 203.66 29.4156C204.58 29.4156 205.295 29.8244 205.499 30.4375L201.003 32.2769ZM195.485 37.0797H197.733V22.4669H195.485V37.0797ZM191.806 28.5981C191.193 27.985 190.273 27.4741 189.047 27.4741C186.493 27.4741 184.142 29.62 184.142 32.4812C184.142 35.2403 186.493 37.3862 189.047 37.3862C190.273 37.3862 191.193 36.8753 191.704 36.2622H191.806V36.9775C191.806 38.9191 190.784 39.8387 189.149 39.8387C187.821 39.8387 186.901 38.9191 186.595 38.1016L184.653 38.8169C185.164 40.1453 186.697 41.7803 189.149 41.7803C191.806 41.7803 193.952 40.2475 193.952 36.6709V27.7806H191.806V28.5981ZM189.252 35.4447C187.719 35.4447 186.39 34.2184 186.39 32.4812C186.39 30.7441 187.719 29.4156 189.252 29.4156C190.784 29.4156 192.011 30.6419 192.011 32.4812C192.011 34.1162 190.784 35.4447 189.252 35.4447ZM218.375 22.4669H213.061V36.9775H215.309V31.4594H218.375C220.828 31.4594 223.28 29.7222 223.28 26.9631C223.28 24.2041 220.828 22.4669 218.375 22.4669ZM218.375 29.5178H215.207V24.5106H218.375C220.01 24.5106 221.032 25.8391 221.032 26.9631C221.032 28.1894 220.112 29.5178 218.375 29.5178ZM232.17 27.3719C230.535 27.3719 228.9 28.0872 228.185 29.62L230.127 30.4375C230.535 29.62 231.353 29.4156 232.17 29.4156C233.294 29.4156 234.521 30.1309 234.521 31.255V31.4594C234.112 31.255 233.294 30.8462 232.17 30.8462C230.024 30.8462 227.878 31.9703 227.878 34.1162C227.878 36.0578 229.616 37.2841 231.557 37.2841C233.09 37.2841 233.908 36.6709 234.418 35.8534H234.521V36.9775H236.667V31.4594C236.667 28.9047 234.725 27.3719 232.17 27.3719ZM231.864 35.4447C231.148 35.4447 230.127 35.1381 230.127 34.2184C230.127 33.0944 231.353 32.6856 232.477 32.6856C233.499 32.6856 233.908 32.89 234.521 33.1966C234.316 34.4228 233.192 35.4447 231.864 35.4447ZM244.535 27.7806L241.98 34.1162H241.878L239.221 27.7806H236.871L240.856 36.5687L238.608 41.4737H240.958L247.09 27.7806H244.535ZM224.506 37.0797H226.754V22.4669H224.506V37.0797Z" fill="white"/>
<path d="M108.523 10.9197C108.217 11.2262 108.013 11.8394 108.013 12.5547V38.3059C108.013 39.0212 108.217 39.6344 108.523 39.9409L108.626 40.0431L123.443 25.6347V25.3281L108.523 10.9197Z" fill="url(#paint0_linear_20005128_12695)"/>
<path d="M128.348 30.3353L123.443 25.5325V25.2259L128.348 20.4231L128.45 20.5253L134.275 23.7953C135.91 24.715 135.91 26.2478 134.275 27.1675L128.45 30.3353H128.348Z" fill="url(#paint1_linear_20005128_12695)"/>
<path d="M128.45 30.3353L123.443 25.4303L108.523 39.9409C109.137 40.4519 110.056 40.554 111.078 39.9409L128.45 30.3353Z" fill="url(#paint2_linear_20005128_12695)"/>
<path d="M128.45 20.5253L111.078 10.8175C110.056 10.3066 109.137 10.3066 108.523 10.9197L123.341 25.4303L128.45 20.5253Z" fill="url(#paint3_linear_20005128_12695)"/>
</g>
</g>
</g>
<defs>
<linearGradient id="paint0_linear_20005128_12695" x1="121.971" y1="38.695" x2="102.436" y2="18.6874" gradientUnits="userSpaceOnUse">
<stop stop-color="#00A0FF"/>
<stop offset="0.0066" stop-color="#00A1FF"/>
<stop offset="0.2601" stop-color="#00BEFF"/>
<stop offset="0.5122" stop-color="#00D2FF"/>
<stop offset="0.7604" stop-color="#00DFFF"/>
<stop offset="1" stop-color="#00E3FF"/>
</linearGradient>
<linearGradient id="paint1_linear_20005128_12695" x1="136.469" y1="25.4053" x2="107.614" y2="25.4053" gradientUnits="userSpaceOnUse">
<stop stop-color="#FFE000"/>
<stop offset="0.4087" stop-color="#FFBD00"/>
<stop offset="0.7754" stop-color="#FFA500"/>
<stop offset="1" stop-color="#FF9C00"/>
</linearGradient>
<linearGradient id="paint2_linear_20005128_12695" x1="115.842" y1="32.3839" x2="89.3518" y2="5.25194" gradientUnits="userSpaceOnUse">
<stop stop-color="#FF3A44"/>
<stop offset="1" stop-color="#C31162"/>
</linearGradient>
<linearGradient id="paint3_linear_20005128_12695" x1="95.4403" y1="39.3266" x2="107.269" y2="27.211" gradientUnits="userSpaceOnUse">
<stop stop-color="#32A071"/>
<stop offset="0.0685" stop-color="#2DA771"/>
<stop offset="0.4762" stop-color="#15CF74"/>
<stop offset="0.8009" stop-color="#06E775"/>
<stop offset="1" stop-color="#00F076"/>
</linearGradient>
<clipPath id="clip0_20005128_12695">
<rect width="139" height="32.7" fill="white" transform="translate(113.7 9.15997)"/>
</clipPath>
<clipPath id="clip1_20005128_12695">
<rect width="139" height="32.7" fill="white" transform="translate(108 10)"/>
</clipPath>
<clipPath id="clip2_20005128_12695">
<rect width="138.975" height="32.7" fill="white" transform="translate(108.013 10)"/>
</clipPath>
</defs>
</svg>
