<svg width="18" height="14" viewBox="0 0 18 14" fill="none" xmlns="http://www.w3.org/2000/svg">
<path d="M15.667 0.333374H2.33366C1.41449 0.333374 0.666992 1.08087 0.666992 2.00004V12C0.666992 12.9192 1.41449 13.6667 2.33366 13.6667H15.667C16.5862 13.6667 17.3337 12.9192 17.3337 12V2.00004C17.3337 1.08087 16.5862 0.333374 15.667 0.333374ZM15.667 2.00004V2.42587L9.00033 7.61171L2.33366 2.42671V2.00004H15.667ZM2.33366 12V4.53671L8.48866 9.32421C8.63866 9.44171 8.81949 9.50004 9.00033 9.50004C9.18116 9.50004 9.36199 9.44171 9.51199 9.32421L15.667 4.53671L15.6687 12H2.33366Z" fill="#B4B7C9"/>
</svg>
